<svg xmlns="http://www.w3.org/2000/svg" viewBox="0 0 593.33 129.88"><defs><style>.cls-1{fill:#0f0f0f;}.cls-2{fill:#aa2727;}</style></defs><g id="Capa_2" data-name="Capa 2"><g id="Capa_1-2" data-name="Capa 1"><path class="cls-1" d="M191.63,23.69,184.36,60H174.08l2.8-14.12h-14L160.11,60H149.83l7.27-36.35h10.28l-2.7,13.61h14l2.7-13.61Z"/><path class="cls-1" d="M222.47,48.41H201.81c.34,3,2.47,4.57,6.38,4.57a11.79,11.79,0,0,0,3.64-.57A9.75,9.75,0,0,0,215,50.69l4.1,6.18a19.63,19.63,0,0,1-12,3.64,18.35,18.35,0,0,1-7.86-1.59A12.08,12.08,0,0,1,194,54.46a12.29,12.29,0,0,1-1.84-6.78,16.33,16.33,0,0,1,2.15-8.33,15.22,15.22,0,0,1,6-5.82,18.26,18.26,0,0,1,8.85-2.1A16.61,16.61,0,0,1,216.53,33a11.27,11.27,0,0,1,4.83,4.34,12.38,12.38,0,0,1,1.69,6.49A21.88,21.88,0,0,1,222.47,48.41Zm-17.75-8.7a7.1,7.1,0,0,0-2.34,3.51H214a4.29,4.29,0,0,0-1.4-3.51,5.62,5.62,0,0,0-3.85-1.27A6.21,6.21,0,0,0,204.72,39.71Z"/><path class="cls-1" d="M248.85,31.43l-1.71,8.88a18,18,0,0,0-2.23-.16,8.33,8.33,0,0,0-5.33,1.59,8.1,8.1,0,0,0-2.67,5L234.21,60h-9.87L230,31.9h9.35L238.67,35Q242.21,31.42,248.85,31.43Z"/><path class="cls-1" d="M252.85,31.9h9.81L257.06,60h-9.82ZM255,27.38a4.51,4.51,0,0,1-1.56-3.48,5.22,5.22,0,0,1,1.74-4,6.59,6.59,0,0,1,4.6-1.58A6.16,6.16,0,0,1,264,19.62a4.25,4.25,0,0,1,1.56,3.4,5.35,5.35,0,0,1-1.77,4.15,6.58,6.58,0,0,1-4.62,1.61A5.93,5.93,0,0,1,255,27.38Z"/><path class="cls-1" d="M298.8,31.9,293.2,60h-9.35l.57-2.65a11.58,11.58,0,0,1-8.15,3.12,11.62,11.62,0,0,1-10.23-6,13.59,13.59,0,0,1-1.66-6.86,16.8,16.8,0,0,1,2.05-8.28A15.44,15.44,0,0,1,272,33.56a14.48,14.48,0,0,1,7.66-2.13q6.14,0,8.62,3.84l.68-3.37ZM284.52,50.38a8.36,8.36,0,0,0,1.87-5.66A5.36,5.36,0,0,0,285,40.78a5.26,5.26,0,0,0-3.92-1.46,6.06,6.06,0,0,0-4.83,2.18,8.46,8.46,0,0,0-1.87,5.71,4.93,4.93,0,0,0,5.35,5.35A6,6,0,0,0,284.52,50.38Z"/><path class="cls-1" d="M330.14,33.89A9,9,0,0,1,332.92,41a17.28,17.28,0,0,1-.36,3.48L329.44,60h-9.87l2.91-14.64a8.06,8.06,0,0,0,.21-1.87c0-2.5-1.3-3.74-3.9-3.74a5.91,5.91,0,0,0-4.25,1.58,9,9,0,0,0-2.34,4.75L309.4,60h-9.87l5.61-28.14h9.35l-.58,2.9A11.83,11.83,0,0,1,318,32.26a13.76,13.76,0,0,1,4.72-.83A10.75,10.75,0,0,1,330.14,33.89Z"/><path class="cls-1" d="M384.79,26.76a10.38,10.38,0,0,1,3.84,8.61,13.94,13.94,0,0,1-8.48,13.3,22.65,22.65,0,0,1-9.48,1.87H363.4L361.53,60H351.25l7.27-36.35h15.37Q381,23.69,384.79,26.76Zm-8.38,14.07a5.78,5.78,0,0,0,1.84-4.57,3.91,3.91,0,0,0-1.48-3.35,6.89,6.89,0,0,0-4.23-1.12h-5.4L365,42.44h6.13A7.8,7.8,0,0,0,376.41,40.83Z"/><path class="cls-1" d="M423.84,31.9,418.23,60h-9.34l.57-2.65a11.58,11.58,0,0,1-8.15,3.12A11.78,11.78,0,0,1,395.46,59a11.61,11.61,0,0,1-4.38-4.44,13.59,13.59,0,0,1-1.67-6.86,16.81,16.81,0,0,1,2.06-8.28A15.29,15.29,0,0,1,397,33.56a14.48,14.48,0,0,1,7.66-2.13q6.12,0,8.62,3.84L414,31.9ZM409.56,50.38a8.36,8.36,0,0,0,1.87-5.66A5.37,5.37,0,0,0,410,40.78a5.24,5.24,0,0,0-3.92-1.46,6.09,6.09,0,0,0-4.83,2.18,8.52,8.52,0,0,0-1.87,5.71,4.94,4.94,0,0,0,5.35,5.35A6,6,0,0,0,409.56,50.38Z"/><path class="cls-1" d="M432.25,21.51h9.87L434.43,60h-9.86Z"/><path class="cls-1" d="M472.08,48.41H451.41c.35,3,2.48,4.57,6.39,4.57a11.68,11.68,0,0,0,3.63-.57,9.65,9.65,0,0,0,3.17-1.72l4.1,6.18a19.58,19.58,0,0,1-12,3.64,18.4,18.4,0,0,1-7.87-1.59,12.11,12.11,0,0,1-5.24-4.46,12.29,12.29,0,0,1-1.84-6.78,16.23,16.23,0,0,1,2.15-8.33,15.19,15.19,0,0,1,6-5.82,18.27,18.27,0,0,1,8.86-2.1A16.56,16.56,0,0,1,466.13,33,11.16,11.16,0,0,1,471,37.3a12.29,12.29,0,0,1,1.69,6.49A21.81,21.81,0,0,1,472.08,48.41Zm-17.76-8.7A7.23,7.23,0,0,0,452,43.22h11.58a4.26,4.26,0,0,0-1.4-3.51,5.61,5.61,0,0,0-3.84-1.27A6.24,6.24,0,0,0,454.32,39.71Z"/><path class="cls-1" d="M504.56,33.89A9,9,0,0,1,507.34,41a16.61,16.61,0,0,1-.37,3.48L503.86,60H494L496.9,45.4a8.06,8.06,0,0,0,.21-1.87c0-2.5-1.3-3.74-3.9-3.74A6,6,0,0,0,489,41.37a9,9,0,0,0-2.33,4.75L483.81,60H474l5.61-28.14h9.34l-.57,2.9a11.79,11.79,0,0,1,4.1-2.54,13.86,13.86,0,0,1,4.73-.83A10.75,10.75,0,0,1,504.56,33.89Z"/><path class="cls-1" d="M518.42,58.92a12.07,12.07,0,0,1-5.19-4.49,12.33,12.33,0,0,1-1.84-6.75,15.72,15.72,0,0,1,2.23-8.31,15.88,15.88,0,0,1,6.23-5.81,18.81,18.81,0,0,1,9-2.13,16.33,16.33,0,0,1,8.26,2,11.89,11.89,0,0,1,5.09,5.63l-8.41,4a5.52,5.52,0,0,0-5.46-3.74,6.35,6.35,0,0,0-4.95,2.18,8.12,8.12,0,0,0-2,5.61,5,5,0,0,0,5.5,5.45,6.72,6.72,0,0,0,3.48-.88,7.31,7.31,0,0,0,2.6-2.8l7.22,4.36a14.06,14.06,0,0,1-5.69,5.35,17.55,17.55,0,0,1-8.28,1.92A18.08,18.08,0,0,1,518.42,58.92Z"/><path class="cls-1" d="M547.37,31.9h9.82L551.58,60h-9.82Zm2.18-4.52A4.51,4.51,0,0,1,548,23.9a5.22,5.22,0,0,1,1.74-4,6.61,6.61,0,0,1,4.6-1.58,6.16,6.16,0,0,1,4.15,1.33A4.25,4.25,0,0,1,560,23a5.38,5.38,0,0,1-1.76,4.15,6.62,6.62,0,0,1-4.63,1.61A5.93,5.93,0,0,1,549.55,27.38Z"/><path class="cls-1" d="M593.33,31.9,587.72,60h-9.35l.57-2.65a11.58,11.58,0,0,1-8.15,3.12,11.62,11.62,0,0,1-10.23-6,13.59,13.59,0,0,1-1.66-6.86A16.8,16.8,0,0,1,561,39.4a15.39,15.39,0,0,1,5.56-5.84,14.42,14.42,0,0,1,7.65-2.13q6.14,0,8.62,3.84l.68-3.37ZM579.05,50.38a8.41,8.41,0,0,0,1.86-5.66,5.36,5.36,0,0,0-1.42-3.94,5.26,5.26,0,0,0-3.92-1.46,6.06,6.06,0,0,0-4.83,2.18,8.46,8.46,0,0,0-1.87,5.71,4.94,4.94,0,0,0,5.35,5.35A6.06,6.06,0,0,0,579.05,50.38Z"/><path class="cls-2" d="M165.24,84.75A13.14,13.14,0,0,1,164,90.61a8.85,8.85,0,0,1-3.61,3.85,11,11,0,0,1-5.56,1.35h-5l3.82-18.11h4.57a7,7,0,0,1,5.17,1.8A7.12,7.12,0,0,1,165.24,84.75ZM155,93.32a6.63,6.63,0,0,0,6.34-4.06,10.65,10.65,0,0,0,.87-4.41,5,5,0,0,0-1.09-3.47,4.07,4.07,0,0,0-3.17-1.2h-1.81l-2.81,13.14Z"/><path class="cls-2" d="M172.36,96.06a5.12,5.12,0,0,1-3.81-1.38,5.19,5.19,0,0,1-1.37-3.83,10.91,10.91,0,0,1,1-4.57,7.85,7.85,0,0,1,2.6-3.26,6.24,6.24,0,0,1,3.67-1.15,4.88,4.88,0,0,1,3.11.89,3.09,3.09,0,0,1,1.1,2.55,3.92,3.92,0,0,1-2.06,3.52,11.2,11.2,0,0,1-5.87,1.27h-.54l0,.39v.36a3.09,3.09,0,0,0,.7,2.15,2.65,2.65,0,0,0,2.09.78,7.17,7.17,0,0,0,1.77-.23,13.17,13.17,0,0,0,2.08-.81v2.32a11.57,11.57,0,0,1-2.19.77A10,10,0,0,1,172.36,96.06Zm1.88-12A3.12,3.12,0,0,0,172,85.16,6.27,6.27,0,0,0,170.5,88h.36a8.22,8.22,0,0,0,3.64-.66,2,2,0,0,0,1.31-1.88,1.24,1.24,0,0,0-.39-1A1.72,1.72,0,0,0,174.24,84.1Z"/><path class="cls-2" d="M189,91.6a4,4,0,0,1-1.46,3.3,6.42,6.42,0,0,1-4.07,1.16,8.78,8.78,0,0,1-4-.83V92.72a7.61,7.61,0,0,0,3.87,1.11,3.42,3.42,0,0,0,1.94-.49,1.56,1.56,0,0,0,.75-1.35,1.54,1.54,0,0,0-.43-1.09,8.88,8.88,0,0,0-1.75-1.21A6.41,6.41,0,0,1,181.69,88a3.34,3.34,0,0,1-.64-2,3.66,3.66,0,0,1,1.33-3A5.43,5.43,0,0,1,186,81.87a8.53,8.53,0,0,1,4.28,1l-.94,2.18a6.88,6.88,0,0,0-3.29-1,2.46,2.46,0,0,0-1.47.41,1.33,1.33,0,0,0-.56,1.14,1.39,1.39,0,0,0,.4,1,7.47,7.47,0,0,0,1.68,1.12,9.74,9.74,0,0,1,1.84,1.25,3.66,3.66,0,0,1,.83,1.13A3.33,3.33,0,0,1,189,91.6Z"/><path class="cls-2" d="M195.69,96.06a3.36,3.36,0,0,1-2.76-1.26,5.46,5.46,0,0,1-1-3.53,12.48,12.48,0,0,1,.86-4.68,8.3,8.3,0,0,1,2.37-3.45,5,5,0,0,1,3.32-1.27,3.69,3.69,0,0,1,2.07.56,3.82,3.82,0,0,1,1.35,1.64H202l.77-2H205l-2.93,13.7h-2.25l.26-2.18H200A5.58,5.58,0,0,1,195.69,96.06Zm1.07-2.35a2.87,2.87,0,0,0,2-1,7.3,7.3,0,0,0,1.61-2.57,9.62,9.62,0,0,0,.63-3.52,2.53,2.53,0,0,0-.58-1.75,1.9,1.9,0,0,0-1.52-.67,2.74,2.74,0,0,0-2,1,6.72,6.72,0,0,0-1.49,2.59,10.58,10.58,0,0,0-.56,3.4,3,3,0,0,0,.5,1.89A1.69,1.69,0,0,0,196.76,93.71Z"/><path class="cls-2" d="M215.31,81.87a5.87,5.87,0,0,1,1.34.14L216,84.73a4.92,4.92,0,0,0-1.27-.18A3.62,3.62,0,0,0,212,86a8,8,0,0,0-1.71,3.67L209,95.81H206L209,82.11h2.27L211,84.65h.12a7.5,7.5,0,0,1,2-2.13A4,4,0,0,1,215.31,81.87Z"/><path class="cls-2" d="M225.67,81.87A5.77,5.77,0,0,1,227,82l-.63,2.72a4.85,4.85,0,0,0-1.26-.18,3.66,3.66,0,0,0-2.79,1.4,8,8,0,0,0-1.71,3.67l-1.31,6.19h-2.92l2.92-13.7h2.28l-.26,2.54h.11a7.38,7.38,0,0,1,2.06-2.13A3.94,3.94,0,0,1,225.67,81.87Z"/><path class="cls-2" d="M239.51,87.24a11.17,11.17,0,0,1-.9,4.55,7.22,7.22,0,0,1-2.49,3.15,6.21,6.21,0,0,1-3.63,1.1,5.1,5.1,0,0,1-3.78-1.42,5.27,5.27,0,0,1-1.4-3.86,11.32,11.32,0,0,1,.89-4.52,7.46,7.46,0,0,1,2.48-3.2,6.15,6.15,0,0,1,3.69-1.15,5,5,0,0,1,3.78,1.44A5.44,5.44,0,0,1,239.51,87.24Zm-2.93-.12A3.18,3.18,0,0,0,236,85a2.09,2.09,0,0,0-1.73-.75,2.91,2.91,0,0,0-2.07.89,6,6,0,0,0-1.41,2.4,10.37,10.37,0,0,0-.5,3.24,3.2,3.2,0,0,0,.61,2.11,2.27,2.27,0,0,0,1.82.73,2.81,2.81,0,0,0,2-.85,5.45,5.45,0,0,0,1.39-2.35A10.78,10.78,0,0,0,236.58,87.12Z"/><path class="cls-2" d="M244.17,95.81h-2.9l4.09-19.27h2.91Z"/><path class="cls-2" d="M251.14,95.81h-2.9l4.09-19.27h2.91Z"/><path class="cls-2" d="M259.58,96.06a3.34,3.34,0,0,1-2.76-1.26,5.46,5.46,0,0,1-1-3.53,12.68,12.68,0,0,1,.86-4.68A8.3,8.3,0,0,1,259,83.14a5,5,0,0,1,3.32-1.27,3.51,3.51,0,0,1,3.42,2.2h.12l.77-2h2.23L266,95.81h-2.26l.26-2.18h-.07A5.56,5.56,0,0,1,259.58,96.06Zm1.06-2.35a2.89,2.89,0,0,0,2-1,7.3,7.3,0,0,0,1.61-2.57,9.62,9.62,0,0,0,.63-3.52,2.58,2.58,0,0,0-.58-1.75,1.92,1.92,0,0,0-1.53-.67,2.74,2.74,0,0,0-2,1,6.71,6.71,0,0,0-1.48,2.59,10.32,10.32,0,0,0-.56,3.4,3,3,0,0,0,.5,1.89A1.68,1.68,0,0,0,260.64,93.71Z"/><path class="cls-2" d="M277,81.87a3.53,3.53,0,0,1,3.32,2.2h.1a23.45,23.45,0,0,1,.46-3.1l.94-4.43h2.89l-4.09,19.27h-2.28l.23-2.18h-.08a7.59,7.59,0,0,1-2.11,1.87,4.42,4.42,0,0,1-2.15.56,3.36,3.36,0,0,1-2.78-1.26,5.57,5.57,0,0,1-1-3.56,12.6,12.6,0,0,1,.88-4.74,8.31,8.31,0,0,1,2.38-3.42A5.07,5.07,0,0,1,277,81.87Zm-1.66,11.84a2.84,2.84,0,0,0,2-1A7.27,7.27,0,0,0,279,90a9.53,9.53,0,0,0,.6-3.31,2.8,2.8,0,0,0-.54-1.8,2,2,0,0,0-1.64-.69,2.71,2.71,0,0,0-2,1A6.76,6.76,0,0,0,274,87.81a10.86,10.86,0,0,0-.54,3.38C273.44,92.87,274.09,93.71,275.38,93.71Z"/><path class="cls-2" d="M297.53,87.24a11,11,0,0,1-.91,4.55,7.28,7.28,0,0,1-2.48,3.15A6.21,6.21,0,0,1,290.5,96a5.08,5.08,0,0,1-3.77-1.42,5.23,5.23,0,0,1-1.4-3.86,11.32,11.32,0,0,1,.88-4.52A7.41,7.41,0,0,1,288.7,83a6.11,6.11,0,0,1,3.69-1.15,4.92,4.92,0,0,1,3.77,1.44A5.45,5.45,0,0,1,297.53,87.24Zm-2.94-.12A3.18,3.18,0,0,0,294,85a2.09,2.09,0,0,0-1.73-.75,2.89,2.89,0,0,0-2.06.89,5.75,5.75,0,0,0-1.41,2.4,10.09,10.09,0,0,0-.5,3.24,3.2,3.2,0,0,0,.61,2.11,2.25,2.25,0,0,0,1.81.73,2.83,2.83,0,0,0,2-.85,5.55,5.55,0,0,0,1.39-2.35A10.78,10.78,0,0,0,294.59,87.12Z"/><path class="cls-2" d="M308.58,81.87a5.77,5.77,0,0,1,1.33.14l-.63,2.72a4.85,4.85,0,0,0-1.26-.18,3.66,3.66,0,0,0-2.79,1.4,8,8,0,0,0-1.71,3.67l-1.31,6.19h-2.92l2.92-13.7h2.28l-.26,2.54h.11a7.38,7.38,0,0,1,2.06-2.13A3.94,3.94,0,0,1,308.58,81.87Z"/><path class="cls-2" d="M319.45,95.81h-2.94l3.83-18.11h9.59l-.54,2.54h-6.65l-1.19,5.63h6.22l-.55,2.51H321Z"/><path class="cls-2" d="M338.23,81.87a5.77,5.77,0,0,1,1.33.14l-.63,2.72a4.79,4.79,0,0,0-1.26-.18,3.66,3.66,0,0,0-2.79,1.4,8.08,8.08,0,0,0-1.71,3.67l-1.31,6.19h-2.92l2.92-13.7h2.28l-.26,2.54H334a7.51,7.51,0,0,1,2.06-2.13A3.94,3.94,0,0,1,338.23,81.87Z"/><path class="cls-2" d="M352.07,87.24a11.17,11.17,0,0,1-.9,4.55,7.28,7.28,0,0,1-2.48,3.15,6.26,6.26,0,0,1-3.64,1.1,5.11,5.11,0,0,1-3.78-1.42,5.27,5.27,0,0,1-1.4-3.86,11.32,11.32,0,0,1,.89-4.52,7.46,7.46,0,0,1,2.48-3.2,6.15,6.15,0,0,1,3.69-1.15,5,5,0,0,1,3.78,1.44A5.44,5.44,0,0,1,352.07,87.24Zm-2.93-.12a3.18,3.18,0,0,0-.61-2.08,2.09,2.09,0,0,0-1.73-.75,2.91,2.91,0,0,0-2.07.89,6,6,0,0,0-1.41,2.4,10.37,10.37,0,0,0-.5,3.24,3.26,3.26,0,0,0,.61,2.11,2.27,2.27,0,0,0,1.82.73,2.85,2.85,0,0,0,2-.85,5.53,5.53,0,0,0,1.38-2.35A10.78,10.78,0,0,0,349.14,87.12Z"/><path class="cls-2" d="M362,95.81l1.75-8.32a9.34,9.34,0,0,0,.23-1.62,1.43,1.43,0,0,0-1.6-1.63,2.78,2.78,0,0,0-1.76.71A6.3,6.3,0,0,0,359,87a11.6,11.6,0,0,0-1,3l-1.21,5.81h-2.93l2.93-13.7H359l-.26,2.54h.12A7.43,7.43,0,0,1,361,82.53a4.51,4.51,0,0,1,2.37-.66,3.4,3.4,0,0,1,2.57.94,3.66,3.66,0,0,1,.91,2.67,11.7,11.7,0,0,1-.29,2.24l-1.69,8.09Z"/><path class="cls-2" d="M373.85,93.71a5.35,5.35,0,0,0,1.87-.39v2.21a5.52,5.52,0,0,1-1.18.37,6.8,6.8,0,0,1-1.49.16q-3.39,0-3.39-3.06a7.92,7.92,0,0,1,.2-1.62l1.5-7.06h-2l.26-1.36,2.35-1,1.6-2.87h1.81l-.64,3h3.45l-.48,2.21h-3.43l-1.51,7.08a5,5,0,0,0-.16,1.14,1.14,1.14,0,0,0,.31.85A1.26,1.26,0,0,0,373.85,93.71Z"/><path class="cls-2" d="M378.11,90.29l.56-2.52h6.21l-.55,2.52Z"/><path class="cls-2" d="M396,95.81h-9.61l3.83-18.11h9.61l-.53,2.54h-6.68l-1,4.9h6.22l-.51,2.51h-6.24L389.9,93.3h6.68Z"/><path class="cls-2" d="M407.6,95.81l1.76-8.32a9.07,9.07,0,0,0,.22-1.62,1.42,1.42,0,0,0-1.6-1.63,2.8,2.8,0,0,0-1.76.71,6.3,6.3,0,0,0-1.56,2,11.6,11.6,0,0,0-1,3l-1.21,5.81h-2.92l2.92-13.7h2.28l-.26,2.54h.11a7.33,7.33,0,0,1,2.12-2.12,4.45,4.45,0,0,1,2.36-.66,3.38,3.38,0,0,1,2.57.94,3.66,3.66,0,0,1,.91,2.67,11.56,11.56,0,0,1-.28,2.24l-1.7,8.09Z"/><path class="cls-2" d="M421.58,81.87a3.53,3.53,0,0,1,3.32,2.2h.1a23.45,23.45,0,0,1,.46-3.1l.94-4.43h2.89L425.2,95.81h-2.28l.23-2.18h-.08A7.59,7.59,0,0,1,421,95.5a4.42,4.42,0,0,1-2.15.56A3.36,3.36,0,0,1,416,94.8a5.57,5.57,0,0,1-1-3.56,12.6,12.6,0,0,1,.88-4.74,8.31,8.31,0,0,1,2.38-3.42A5.07,5.07,0,0,1,421.58,81.87Zm-1.66,11.84a2.84,2.84,0,0,0,2-1,7.27,7.27,0,0,0,1.6-2.65,9.53,9.53,0,0,0,.6-3.31,2.8,2.8,0,0,0-.54-1.8,1.93,1.93,0,0,0-1.64-.69,2.71,2.71,0,0,0-2,1,6.76,6.76,0,0,0-1.46,2.61,10.86,10.86,0,0,0-.54,3.38C418,92.87,418.63,93.71,419.92,93.71Z"/><polygon class="cls-2" points="59.64 0.01 49.23 52.07 38.56 52.07 42.75 31.15 12.47 31.15 0 93.45 30.26 93.45 34.45 72.53 45.13 72.53 33.66 129.88 63.92 129.88 79.68 51.22 89.87 0.01 59.64 0.01"/><polygon class="cls-2" points="100.34 0 87.87 62.3 118.13 62.3 130.62 0 100.34 0"/></g></g></svg>